# xmcd CD database file
#
# Track frame offsets:
#	150
#	20069
#	57830
#	80683
#	105323
#	121645
#	139377
#	162379
#	188052
#	207502
#	224001
#
# Disc length: 3223 seconds
#
# Revision: 0
# Processed by: cddbd v1.5.2PL0 Copyright (c) Steve Scherf et al.
# Submitted via: CDex 1.51
#
DISCID=a00c950b
DTITLE=Various Artist - The Rhythm And Blues Fest
DYEAR=2006
DGENRE=Blues
TTITLE0=Simon Hickling and The DT's/I Need Your Love
TTITLE1=Simon Hickling and The DT's/A Thousand Miles From Nowhere
TTITLE2=Simon Hickling and The DT's/Promised Land
TTITLE3=Hucklebuck/12 O'clock In The Morning
TTITLE4=Hucklebuck/Moving Through Georgia
TTITLE5=Cadilac Kings/Exercising Baby
TTITLE6=Cadilac Kings/You Never Know
TTITLE7=Cadilac Kings/Wee Wee Hours
TTITLE8=Richie Milton and The Lowdown/Shake It
TTITLE9=Richie Milton and The Lowdown/Straight Ahead, No Stopping
TTITLE10=Richie Milton and The Lowdown-Early In The Morning
EXTD=YEAR: 2006
EXTT0=
EXTT1=
EXTT2=
EXTT3=
EXTT4=
EXTT5=
EXTT6=
EXTT7=
EXTT8=
EXTT9=
EXTT10=
PLAYORDER=
